<svg xmlns="http://www.w3.org/2000/svg" viewBox="0 0 512 512">
<path fill="#ffffff" d="M 129.793 229.128 C 135.444 213.127 144.619 198.081 157.537 185.237 C 203.409 139.364 277.76 139.364 323.632 185.237 L 336.183 197.861 L 299.265 197.861 C 286.273 197.861 275.778 208.357 275.778 221.347 C 275.778 234.339 286.273 244.834 299.265 244.834 L 392.845 244.834 C 392.845 244.834 392.845 244.834 392.845 244.834 L 393.139 244.834 C 406.13 244.834 416.626 234.339 416.626 221.347 L 416.626 127.401 C 416.626 114.409 406.13 103.913 393.139 103.913 C 380.148 103.913 369.652 114.409 369.652 127.401 L 369.652 164.979 L 356.808 152.061 C 292.586 87.84 188.51 87.84 124.288 152.061 C 106.379 169.97 93.461 191.035 85.534 213.568 C 81.205 225.825 87.663 239.183 99.847 243.513 C 112.031 247.844 125.462 241.385 129.793 229.201 L 129.793 229.128 Z" style=""></path>
<rect x="327.788" y="265.702" width="139.022" height="139.022" rx="3" ry="3" fill="#ff0000"></rect>
<rect x="45.19" y="269.082" width="139.022" height="139.022" rx="3" ry="3" fill="#ffffff"></rect>
</svg>


