<svg xmlns="http://www.w3.org/2000/svg" viewBox="0 0 512 512">
  <path d="M386.3 160H336c-17.7 0-32 14.3-32 32s14.3 32 32 32H464c17.7 0 32-14.3 32-32V64c0-17.7-14.3-32-32-32s-32 14.3-32 32v51.2L414.4 97.6c-87.5-87.5-229.3-87.5-316.8 0s-87.5 229.3 0 316.8s229.3 87.5 316.8 0c12.5-12.5 12.5-32.8 0-45.3s-32.8-12.5-45.3 0c-62.5 62.5-163.8 62.5-226.3 0s-62.5-163.8 0-226.3s163.8-62.5 226.3 0L386.3 160z" style="fill: rgb(255, 255, 255);"></path>
  <text style="fill: rgb(255, 255, 255); font-family: 'Press Start 2P'; font-size: 108px; font-weight: 700; white-space: pre;" x="300" y="360">90</text>
</svg>