<svg xmlns="http://www.w3.org/2000/svg" viewBox="0 0 512 512"><path fill="#ffffff" d="M 105.0999984741211 202.60000610351562 C 112.80000305175781 180.8000030517578 125.30000305175781 160.3000030517578 142.89999389648438 142.8000030517578 C 205.39999389648438 80.30000305175781 306.70001220703125 80.30000305175781 369.20001220703125 142.8000030517578 L 386.29998779296875 160 L 336 160 C 318.29998779296875 160 304 174.3000030517578 304 192 C 304 209.6999969482422 318.29998779296875 224 336 224 L 463.5 224 C 463.5 224 463.5 224 463.5 224 L 463.8999938964844 224 C 481.6000061035156 224 495.8999938964844 209.6999969482422 495.8999938964844 192 L 495.8999938964844 64 C 495.8999938964844 46.29999923706055 481.6000061035156 32 463.8999938964844 32 C 446.20001220703125 32 431.8999938964844 46.29999923706055 431.8999938964844 64 L 431.8999938964844 115.19999694824219 L 414.3999938964844 97.5999984741211 C 326.8999938964844 10.100000381469727 185.10000610351562 10.100000381469727 97.5999984741211 97.5999984741211 C 73.19999694824219 122 55.599998474121094 150.6999969482422 44.79999923706055 181.39999389648438 C 38.900001525878906 198.10000610351562 47.70000076293945 216.3000030517578 64.30000305175781 222.1999969482422 C 80.9000015258789 228.10000610351562 99.19999694824219 219.3000030517578 105.0999984741211 202.6999969482422 L 105.0999984741211 202.60000610351562 Z M NaN NaN " /><path d="M 105.0999984741211 202.60000610351562 Z M 39 289.29998779296875 C 34 290.79998779296875 29.200000762939453 293.5 25.299999237060547 297.5 C 21.299999237060547 301.5 18.600000381469727 306.29998779296875 17.200000762939453 311.5 C 16.899999618530273 312.70001220703125 16.600000381469727 314 16.399999618530273 315.29998779296875 C 16.100000381469727 317 16 318.70001220703125 16 320.3999938964844 L 16 448 C 16 465.70001220703125 30.299999237060547 480 48 480 C 65.69999694824219 480 80 465.70001220703125 80 448 L 80 396.8999938964844 L 97.5999984741211 414.3999938964844 L 97.5999984741211 414.3999938964844 C 185.10000610351562 501.79998779296875 326.8999938964844 501.79998779296875 414.29998779296875 414.3999938964844 C 438.70001220703125 390 456.3999938964844 361.29998779296875 467.20001220703125 330.70001220703125 C 473.1000061035156 314 464.29998779296875 295.79998779296875 447.70001220703125 289.8999938964844 C 431.1000061035156 284 412.79998779296875 292.79998779296875 406.8999938964844 309.3999938964844 C 399.20001220703125 331.20001220703125 386.70001220703125 351.70001220703125 369.1000061035156 369.20001220703125 C 306.6000061035156 431.70001220703125 205.3000030517578 431.70001220703125 142.8000030517578 369.20001220703125 L 142.6999969482422 369.1000061035156 L 125.5999984741211 352 L 176 352 C 193.6999969482422 352 208 337.70001220703125 208 320 C 208 302.29998779296875 193.6999969482422 288 176 288 L 48.400001525878906 288 C 46.79999923706055 288 45.20000076293945 288.1000061035156 43.599998474121094 288.29998779296875 C 42 288.5 40.5 288.79998779296875 39 289.29998779296875 Z " fill="#BABABA" /></svg>
