<svg xmlns="http://www.w3.org/2000/svg" viewBox="0 0 512 512">
<path d="M 386.3 352 L 336 352 C 318.3 352 304 337.7 304 320 C 304 302.3 318.3 288 336 288 L 464 288 C 481.7 288 496 302.3 496 320 L 496 448 C 496 465.7 481.7 480 464 480 C 446.3 480 432 465.7 432 448 L 432 396.8 L 414.4 414.4 C 326.9 501.9 185.1 501.9 97.6 414.4 C 10.1 326.9 10.1 185.1 97.6 97.6 C 185.1 10.1 326.9 10.1 414.4 97.6 C 426.9 110.1 426.9 130.4 414.4 142.9 C 401.9 155.4 381.6 155.4 369.1 142.9 C 306.6 80.4 205.3 80.4 142.8 142.9 C 80.3 205.4 80.3 306.7 142.8 369.2 C 205.3 431.7 306.6 431.7 369.1 369.2 L 386.3 352 Z" style="fill: rgb(255, 255, 255);" transform="matrix(-1, 0, 0, -1, 527.974991, 511.999985)"></path>
  <text style="fill: rgb(255, 255, 255); font-family: 'Press Start 2P'; font-size: 108px; font-weight: 700; white-space: pre;" x="10" y="360">90</text>
</svg>