<svg xmlns="http://www.w3.org/2000/svg" viewBox="0 0 512 512" fill="#ff0000"><path d="M 406.6 150.6 C 419.1 138.1 419.1 117.8 406.6 105.3 C 394.1 92.8 373.8 92.8 361.3 105.3 L 256 210.7 L 150.6 105.4 C 138.1 92.9 117.8 92.9 105.3 105.4 C 92.8 117.9 92.8 138.2 105.3 150.7 L 210.7 256 L 105.4 361.4 C 92.9 373.9 92.9 394.2 105.4 406.7 C 117.9 419.2 138.2 419.2 150.7 406.7 L 256 301.3 L 361.4 406.6 C 373.9 419.1 394.2 419.1 406.7 406.6 C 419.2 394.1 419.2 373.8 406.7 361.3 L 301.3 256 L 406.6 150.6 Z"/></svg>